<svg width="128" height="128" viewBox="0 0 128 128" fill="none" xmlns="http://www.w3.org/2000/svg">
<path d="M0 16C0 7.16344 7.16344 0 16 0H112C120.837 0 128 7.16344 128 16V112C128 120.837 120.837 128 112 128H16C7.16344 128 0 120.837 0 112V16Z" fill="#0A0A0A"/>
<path d="M26.28 75.504H29.48V46.704H26.28V36.208H54.376C59.88 36.208 64.0827 37.4027 66.984 39.792C69.8853 42.1387 71.336 45.9573 71.336 51.248C71.336 56.5387 69.8853 60.3787 66.984 62.768C64.0827 65.1147 59.88 66.288 54.376 66.288H47.4V75.504H53.544V86H26.28V75.504ZM49.576 57.2C52.0507 57.2 53.288 55.8347 53.288 53.104V50.8C53.288 49.392 52.968 48.368 52.328 47.728C51.7307 47.0453 50.8133 46.704 49.576 46.704H47.4V57.2H49.576Z" fill="#FAFAFA"/>
<path d="M89.21 86.896C84.6873 86.896 81.274 85.808 78.97 83.632C76.7087 81.4133 75.578 77.7013 75.578 72.496V60.912H72.762V50.416C74.3833 50.416 75.5993 50.0107 76.41 49.2C77.2207 48.3467 77.626 47.1947 77.626 45.744V42.864H91.194V50.416H99.834V60.912H91.194V71.408C91.194 72.816 91.4927 73.8613 92.09 74.544C92.73 75.184 93.6687 75.504 94.906 75.504C96.5273 75.504 98.298 75.312 100.218 74.928V84.976C99.0233 85.4453 97.402 85.872 95.354 86.256C93.3487 86.6827 91.3007 86.896 89.21 86.896Z" fill="#FAFAFA"/>
</svg>
